<?xml version="1.0" encoding="UTF-8" standalone="no"?><!DOCTYPE svg PUBLIC "-//W3C//DTD SVG 1.1//EN" "http://www.w3.org/Graphics/SVG/1.1/DTD/svg11.dtd"><svg width="100%" height="100%" viewBox="0 0 3334 3334" version="1.1" xmlns="http://www.w3.org/2000/svg" xmlns:xlink="http://www.w3.org/1999/xlink" xml:space="preserve" xmlns:serif="http://www.serif.com/" style="fill-rule:evenodd;clip-rule:evenodd;stroke-linejoin:round;stroke-miterlimit:2;"><g><path d="M3312.5,354.771l0,2623.79c0,184.305 -149.632,333.937 -333.937,333.937l-2623.79,0c-184.305,0 -333.938,-149.632 -333.938,-333.937l0,-2623.79c0,-184.305 149.633,-333.938 333.938,-333.938l2623.79,0c184.305,0 333.937,149.633 333.937,333.938Z" style="fill:url(#_Linear1);"/><path d="M859.676,2258.98l-386.963,-386.889c-15.494,-15.495 -18.829,-39.326 -8.238,-58.646c10.591,-19.124 32.068,-29.127 54.034,-23.929l550.535,128.178l177.006,-177.214l-694.395,-694.437c-15.396,-15.398 -18.829,-39.229 -8.238,-58.647c10.591,-19.123 32.264,-29.029 54.034,-23.929l1156.57,269.106l223.686,-223.895c56.681,-56.685 133.76,-78.947 207.406,-68.454l312.826,-312.943c52.72,-52.723 135.319,-57.077 192.974,-13.062l-50.417,-0c-4.974,-0 -9.012,4.038 -9.012,9.012c-0,4.975 4.038,9.013 9.012,9.013l60.436,0l0,60.44c0,4.974 4.038,9.013 9.012,9.013c4.974,-0 9.013,-4.039 9.013,-9.013l-0,-50.485c44.211,57.637 40.185,140.557 -12.532,193.188l-313.121,312.943c10.199,73.553 -12.062,150.637 -68.449,207.125l-223.979,223.895l266.245,1143.9c4.021,7.061 6.08,15.201 6.08,23.929c0,27.166 -26.379,47.662 -49.915,49.035l-1.176,0c-12.749,0 -25.203,-4.903 -34.715,-14.318l-694.592,-694.732l-176.909,177.214l125.033,537.623c3.824,6.963 6.08,15.102 6.08,23.831c-0,27.361 -22.065,51.193 -50.013,49.035l-0.981,0c-12.65,0 -25.301,-4.904 -34.715,-14.318l-386.865,-386.791c-2.059,-0.196 -4.118,-0.294 -6.08,-0.588l-58.054,58.058c-28.733,28.734 -66.488,43.053 -104.145,43.053c-37.656,-0 -75.411,-14.319 -104.144,-43.053c-57.466,-57.47 -57.466,-150.539 -0,-208.008l58.25,-58.156c-0.392,-2.059 -0.392,-4.021 -0.588,-6.08Zm-281.446,-562.281c-2.214,-29.126 -3.341,-58.553 -3.341,-88.241c-0,-118.623 17.996,-233.076 51.405,-340.775l87.731,87.736c-20.243,81.02 -30.99,165.784 -30.99,253.039c-0,38.55 2.098,76.613 6.185,114.082l-110.99,-25.841Zm235.465,-789.636c210.366,-272.838 540.43,-448.731 911.249,-448.731c226.556,0 437.898,65.656 616.025,178.963l-78.526,78.555c-156.969,-94.8 -340.912,-149.365 -537.499,-149.365c-318.062,-0 -603.029,142.836 -794.207,367.811l-117.042,-27.233Zm1882.48,85.525c113.225,178.097 178.83,389.382 178.83,615.87c0,370.772 -175.816,700.802 -448.549,911.186l-27.244,-117.051c224.879,-191.188 367.647,-476.119 367.647,-794.135c-0,-196.523 -54.521,-380.412 -149.248,-537.352l78.564,-78.518Zm-630.455,1714.58c-107.697,33.415 -222.149,51.414 -340.771,51.414c-29.666,-0 -59.071,-1.126 -88.175,-3.337l-25.813,-110.992c37.439,4.081 75.471,6.176 113.988,6.176c87.259,0 172.027,-10.75 253.051,-30.998l87.72,87.737Z" style="fill:#fff;"/></g><defs><linearGradient id="_Linear1" x1="0" y1="0" x2="1" y2="0" gradientUnits="userSpaceOnUse" gradientTransform="matrix(2997.98,3173.8,-3173.8,2997.98,202.573,48.4577)"><stop offset="0" style="stop-color:#60ccf4;stop-opacity:1"/><stop offset="1" style="stop-color:#2d69f2;stop-opacity:1"/></linearGradient></defs></svg>